# File created by Blade
# Date/Time:  Tue Sep 30 19:33:40 2014
#---------------------------------------------------------
:version 1.10
:name HOM
:units
  mass 1.0
  length 1.000000
  angle deg
:documentation
     Acclaim Skeleton File
:root
   axis xyz
   order TX TY TZ RX RY RZ
   position 0.000000 0.000000 0.000000
   orientation 0 0 0
:bonedata
   begin
      id 1
      name Spine_dum
      direction 0.000000 1.000000 0.000000
      length 3.241213
      axis 0.0 0.0 0.0 xyz
   end
   begin
      id 2
      name LeftUpLeg_dum
      direction 1.000000 0.000000 0.000000
      length 3.434019
      axis 0.0 0.0 0.0 xyz
   end
   begin
      id 3
      name RightUpLeg_dum
      direction -1.000000 0.000000 0.000000
      length 3.434019
      axis 0.0 0.0 0.0 xyz
   end
   begin
      id 4
      name Spine
      direction 0.000000 1.000000 0.000000
      length 0.000000
      axis 0.0 0.0 0.0 xyz
      dof rx ry rz
   end
   begin
      id 5
      name Spine_dum1
      direction 0.000000 1.000000 0.000000
      length 18.382958
      axis 0.0 0.0 0.0 xyz
   end
   begin
      id 6
      name Spine_dum2
      direction 0.000000 1.000000 0.000000
      length 12.828261
      axis 0.0 0.0 0.0 xyz
   end
   begin
      id 7
      name Spine_dum3
      direction 0.000000 1.000000 0.000000
      length 12.828261
      axis 0.0 0.0 0.0 xyz
   end
   begin
      id 8
      name Head
      direction 0.000000 1.000000 0.000000
      length 4.527550
      axis 0.0 0.0 0.0 xyz
      dof rx ry rz
   end
   begin
      id 9
      name LeftShoulder
      direction 1.000000 0.000000 0.000000
      length 7.748055
      axis 0.0 0.0 -90.0 xyz
      dof rx ry rz
   end
   begin
      id 10
      name LeftArm
      direction 1.000000 0.000000 0.000000
      length 10.635614
      axis 0.0 0.0 -90.0 xyz
      dof rx ry rz
   end
   begin
      id 11
      name LeftForeArm
      direction 1.000000 0.000000 0.000000
      length 8.346755
      axis 0.0 0.0 -90.0 xyz
      dof ry rz rx
   end
   begin
      id 12
      name LeftHand
      direction 0.000000 0.000000 0.000000
      length 0.000000
      axis 0.0 0.0 -90.0 xyz
      dof rx ry rz
   end
   begin
      id 13
      name LeftHand_dum1
      direction 0.000000 0.000000 0.000000
      length 0.000000
      axis 0.0 0.0 -90.0 xyz
   end
   begin
      id 14
      name LeftHand_dum2
      direction 1.000000 0.000000 0.000000
      length 3.937000
      axis 0.0 0.0 -90.0 xyz
   end
   begin
      id 15
      name LeftHandThumb1
      direction 0.000000 0.000000 1.000000
      length 3.937000
      axis 0.0 0.0 -90.0 xyz
      dof rx rz ry
   end
   begin
      id 16
      name RightShoulder
      direction -1.000000 0.000000 0.000000
      length 7.748055
      axis 0.0 0.0 90.0 xyz
      dof rx ry rz
   end
   begin
      id 17
      name RightArm
      direction -1.000000 0.000000 0.000000
      length 10.635614
      axis 0.0 0.0 90.0 xyz
      dof rx ry rz
   end
   begin
      id 18
      name RightForeArm
      direction -1.000000 0.000000 0.000000
      length 8.346755
      axis 0.0 0.0 90.0 xyz
      dof ry rz rx
   end
   begin
      id 19
      name RightHand
      direction 0.000000 0.000000 0.000000
      length 0.000000
      axis 0.0 0.0 90.0 xyz
      dof rx ry rz
   end
   begin
      id 20
      name RightHand_dum1
      direction 0.000000 0.000000 0.000000
      length 0.000000
      axis 0.0 0.0 90.0 xyz
   end
   begin
      id 21
      name RightHand_dum2
      direction -1.000000 0.000000 0.000000
      length 3.937000
      axis 0.0 0.0 90.0 xyz
   end
   begin
      id 22
      name RightHandThumb1
      direction 0.000000 0.000000 1.000000
      length 3.937000
      axis 0.0 0.0 90.0 xyz
      dof rx rz ry
   end
   begin
      id 23
      name LeftUpLeg
      direction 0.000000 -1.000000 0.000000
      length 15.713025
      axis 0.0 0.0 0.0 xyz
      dof rx ry rz
   end
   begin
      id 24
      name LeftLeg
      direction 0.000000 -1.000000 0.000000
      length 14.435119
      axis 0.0 0.0 0.0 xyz
      dof rx ry rz
   end
   begin
      id 25
      name LeftFoot
      direction 0.000000 -0.258819 0.965926
      length 4.938895
      axis 15.0 0.0 0.0 xyz
      dof rx ry rz
   end
   begin
      id 26
      name LeftToeBase
      direction 0.000000 0.000000 1.000000
      length 2.952750
      axis 0.0 0.0 0.0 xyz
      dof rx ry rz
   end
   begin
      id 27
      name RightUpLeg
      direction 0.000000 -1.000000 0.000000
      length 15.713025
      axis 0.0 0.0 0.0 xyz
      dof rx ry rz
   end
   begin
      id 28
      name RightLeg
      direction 0.000000 -1.000000 0.000000
      length 14.435119
      axis 0.0 0.0 0.0 xyz
      dof rx ry rz
   end
   begin
      id 29
      name RightFoot
      direction 0.000000 -0.258819 0.965926
      length 4.938895
      axis 15.0 0.0 0.0 xyz
      dof rx ry rz
   end
   begin
      id 30
      name RightToeBase
      direction 0.000000 0.000000 1.000000
      length 2.952750
      axis 0.0 0.0 0.0 xyz
      dof rx ry rz
   end
:hierarchy
   begin
      root Spine_dum LeftUpLeg_dum RightUpLeg_dum
      Spine_dum Spine
      LeftUpLeg_dum LeftUpLeg
      RightUpLeg_dum RightUpLeg
      Spine Spine_dum1 Spine_dum2 Spine_dum3
      Spine_dum1 Head
      Spine_dum2 LeftShoulder
      Spine_dum3 RightShoulder
      LeftShoulder LeftArm
      LeftArm LeftForeArm
      LeftForeArm LeftHand
      LeftHand LeftHand_dum1 LeftHand_dum2
      LeftHand_dum1 LeftHandThumb1
      RightShoulder RightArm
      RightArm RightForeArm
      RightForeArm RightHand
      RightHand RightHand_dum1 RightHand_dum2
      RightHand_dum1 RightHandThumb1
      LeftUpLeg LeftLeg
      LeftLeg LeftFoot
      LeftFoot LeftToeBase
      RightUpLeg RightLeg
      RightLeg RightFoot
      RightFoot RightToeBase
   end

# File created by Blade
# Date/Time:  Mon Sep 22 21:09:19 2014
# Frame Rate: 120.000 fps
#------------------------------------------------------
:FULLY-SPECIFIED
:DEGREES
339
root -1.559955 32.976785 -4.418593 5.574377 40.147833 -24.592015
Spine -24.603730 -6.622948 19.039369
Head 6.717258 14.991027 10.096583
LeftShoulder -8.520642 48.720057 14.950764
LeftArm 66.748633 27.129055 -50.141947
LeftForeArm -37.356106 -0.000000 86.559087
LeftHand -14.033373 -0.000000 -7.646947
LeftHandThumb1 -26.253704 0.000000 33.147579
RightShoulder 0.042148 -42.145995 -25.500176
RightArm 85.363087 -19.811832 32.509733
RightForeArm 62.573531 -0.000000 73.269107
RightHand -2.891577 -0.000000 10.583344
RightHandThumb1 -24.326973 -0.000000 -32.862282
LeftUpLeg -30.256782 3.951925 15.373434
LeftLeg 21.927505 -0.000000 -0.000000
LeftFoot -19.826943 7.581513 -0.440441
LeftToeBase 4.716067 -0.000000 -0.000000
RightUpLeg -154.670893 12.194548 0.760182
RightLeg 92.413147 -0.000000 -0.000000
RightFoot 37.391871 -13.936344 20.480515
RightToeBase 44.600031 -0.000000 -0.000000
340
root -1.544885 32.989839 -4.405702 5.558226 40.497022 -24.890438
Spine -24.927175 -6.527400 19.188378
Head 6.724121 14.703962 10.034202
LeftShoulder -8.438056 48.633206 15.062327
LeftArm 66.780637 27.232839 -50.090413
LeftForeArm -37.545942 -0.000000 86.552017
LeftHand -13.937645 -0.000000 -7.452094
LeftHandThumb1 -26.253704 0.000000 33.147579
RightShoulder -0.057022 -42.209944 -25.419511
RightArm 85.252452 -19.797465 32.555292
RightForeArm 62.521716 -0.000000 73.383716
RightHand -2.933875 -0.000000 10.686301
RightHandThumb1 -24.326973 -0.000000 -32.862282
LeftUpLeg -30.458899 4.948679 15.096519
LeftLeg 21.859598 -0.000000 -0.000000
LeftFoot -19.589696 10.322135 -0.576336
LeftToeBase 3.920344 -0.000000 -0.000000
RightUpLeg -154.962387 12.101757 0.836962
RightLeg 93.063337 -0.000000 -0.000000
RightFoot 37.466019 -13.912452 20.448294
RightToeBase 44.681112 -0.000000 -0.000000
341
root -1.526461 32.991774 -4.376953 5.318267 40.884544 -25.111763
Spine -24.982649 -6.584029 19.208276
Head 6.653638 14.403908 10.024486
LeftShoulder -8.364743 48.430654 15.236952
LeftArm 66.718896 27.411200 -50.063863
LeftForeArm -37.575876 -0.000000 86.573605
LeftHand -13.997046 -0.000000 -7.664765
LeftHandThumb1 -26.253704 0.000000 33.147579
RightShoulder -0.238303 -42.225244 -25.299328
RightArm 85.179970 -19.835433 32.584311
RightForeArm 62.558270 -0.000000 73.483726
RightHand -2.929218 -0.000000 10.862691
RightHandThumb1 -24.326973 -0.000000 -32.862282
LeftUpLeg -30.462041 6.036986 14.711377
LeftLeg 21.866518 -0.000000 -0.000000
LeftFoot -18.993813 11.708761 -0.168081
LeftToeBase 3.539794 -0.000000 -0.000000
RightUpLeg -155.065592 11.949579 0.888987
RightLeg 93.807241 -0.000000 -0.000000
RightFoot 37.545698 -13.869558 20.388216
RightToeBase 44.909082 -0.000000 -0.000000
342
root -1.510795 32.993837 -4.349583 5.047500 41.238874 -25.419549
Spine -25.075943 -6.634391 19.316885
Head 6.666679 14.166815 10.003568
LeftShoulder -8.315854 48.374209 15.324281
LeftArm 66.792082 27.428058 -49.990334
LeftForeArm -37.677967 -0.000000 86.537467
LeftHand -13.838374 0.000000 -7.155634
LeftHandThumb1 -26.253704 0.000000 33.147579
RightShoulder -0.245271 -42.159118 -25.294761
RightArm 84.981327 -19.884448 32.660660
RightForeArm 62.579690 -0.000000 73.636735
RightHand -2.941608 -0.000000 10.839677
RightHandThumb1 -24.326973 -0.000000 -32.862282
LeftUpLeg -30.599930 7.260004 14.360298
LeftLeg 21.874598 -0.000000 -0.000000
LeftFoot -18.165721 11.497191 0.540784
LeftToeBase 3.650872 -0.000000 -0.000000
RightUpLeg -155.181495 11.836627 1.006167
RightLeg 94.550771 -0.000000 -0.000000
RightFoot 37.716043 -13.926912 20.292337
RightToeBase 44.923261 -0.000000 -0.000000
343
root -1.490719 32.990658 -4.323642 4.705067 41.686341 -25.750310
Spine -25.134679 -6.752485 19.438227
Head 6.654743 13.869752 9.934705
LeftShoulder -8.213767 48.269661 15.414528
LeftArm 66.838768 27.460475 -49.874144
LeftForeArm -37.727202 -0.000000 86.592805
LeftHand -13.701494 -0.000000 -7.692715
LeftHandThumb1 -26.253704 0.000000 33.147579
RightShoulder -0.275731 -42.051591 -25.325689
RightArm 84.736223 -19.954632 32.781680
RightForeArm 62.690193 0.000000 73.797132
RightHand -3.048873 0.000000 10.925984
RightHandThumb1 -24.326973 -0.000000 -32.862282
LeftUpLeg -30.854021 8.295327 14.004166
LeftLeg 22.050657 -0.000000 -0.000000
LeftFoot -17.136005 10.516451 2.433078
LeftToeBase 3.141217 -0.000000 -0.000000
RightUpLeg -155.266980 11.619594 1.161609
RightLeg 95.316935 -0.000000 -0.000000
RightFoot 37.908774 -13.769886 20.003152
RightToeBase 45.067912 -0.000000 -0.000000
344
root -1.472028 32.986093 -4.299300 4.338565 42.104357 -26.147923
Spine -25.200457 -6.839147 19.611654
Head 6.626183 13.553801 9.854423
LeftShoulder -8.112105 48.133047 15.485867
LeftArm 66.924235 27.495291 -49.729665
LeftForeArm -37.720680 -0.000000 86.604929
LeftHand -13.997240 0.000000 -7.873792
LeftHandThumb1 -26.253704 0.000000 33.147579
RightShoulder -0.285205 -41.926094 -25.384907
RightArm 84.460004 -20.044558 32.898341
RightForeArm 62.724464 0.000000 73.978011
RightHand -3.008428 -0.000000 11.005719
RightHandThumb1 -24.326973 -0.000000 -32.862282
LeftUpLeg -31.144512 8.824149 13.902676
LeftLeg 22.267462 -0.000000 -0.000000
LeftFoot -16.096213 9.854092 4.239615
LeftToeBase 1.836724 -0.000000 -0.000000
RightUpLeg -155.361650 11.448338 1.392889
RightLeg 96.072966 -0.000000 -0.000000
RightFoot 38.023712 -13.438821 19.584314
RightToeBase 45.539707 -0.000000 -0.000000
345
root -1.449579 32.978798 -4.277303 3.950147 42.541082 -26.526823
Spine -25.240605 -6.925681 19.764524
Head 6.583760 13.212460 9.744384
LeftShoulder -7.983839 47.952262 15.531800
LeftArm 66.959131 27.526112 -49.606445
LeftForeArm -37.645434 0.000000 86.673611
LeftHand -13.877126 -0.000000 -7.344074
LeftHandThumb1 -26.253704 0.000000 33.147579
RightShoulder -0.307237 -41.829511 -25.431494
RightArm 84.156162 -20.101448 33.046366
RightForeArm 62.724495 -0.000000 74.152523
RightHand -3.082410 -0.000000 11.152636
RightHandThumb1 -24.326973 -0.000000 -32.862282
LeftUpLeg -31.424172 8.843417 13.975693
LeftLeg 22.665888 -0.000000 -0.000000
LeftFoot -15.545401 9.822570 4.931039
LeftToeBase 0.943422 -0.000000 -0.000000
RightUpLeg -155.422875 11.257771 1.655490
RightLeg 96.838784 -0.000000 -0.000000
RightFoot 38.172643 -13.364726 19.530308
RightToeBase 45.467611 -0.000000 -0.000000
346
root -1.425995 32.969235 -4.258962 3.654179 42.961892 -26.873446
Spine -25.340665 -6.987617 19.894153
Head 6.504252 12.887893 9.627002
LeftShoulder -7.909556 47.828837 15.549689
LeftArm 67.090624 27.570304 -49.484091
LeftForeArm -37.578024 0.000000 86.720419
LeftHand -13.903813 -0.000000 -8.101805
LeftHandThumb1 -26.253704 0.000000 33.147579
RightShoulder -0.310535 -41.711065 -25.512106
RightArm 83.831410 -20.189781 33.173135
RightForeArm 62.838384 -0.000000 74.342267
RightHand -3.036417 -0.000000 11.258058
RightHandThumb1 -24.326973 -0.000000 -32.862282
LeftUpLeg -31.707635 8.473890 14.151431
LeftLeg 23.053864 -0.000000 -0.000000
LeftFoot -15.349934 10.117334 5.100300
LeftToeBase 0.554151 -0.000000 -0.000000
RightUpLeg -155.536999 11.082008 1.909066
RightLeg 97.538404 -0.000000 -0.000000
RightFoot 38.378094 -13.177652 19.402400
RightToeBase 45.438778 -0.000000 -0.000000
347
root -1.405393 32.960102 -4.237873 3.425473 43.311889 -27.199775
Spine -25.474744 -6.956225 19.975048
Head 6.413277 12.556307 9.560663
LeftShoulder -7.801368 47.681145 15.641990
LeftArm 67.182590 27.683142 -49.399135
LeftForeArm -37.568301 -0.000000 86.747604
LeftHand -13.994473 -0.000000 -8.596471
LeftHandThumb1 -26.253704 0.000000 33.147579
RightShoulder -0.419496 -41.749696 -25.466411
RightArm 83.672344 -20.131121 33.165384
RightForeArm 63.074938 0.000000 74.481378
RightHand -3.080045 -0.000000 11.381017
RightHandThumb1 -24.326973 -0.000000 -32.862282
LeftUpLeg -31.989364 8.070482 14.371788
LeftLeg 23.398035 -0.000000 -0.000000
LeftFoot -15.286148 10.390858 4.920800
LeftToeBase 0.590395 -0.000000 -0.000000
RightUpLeg -155.679187 10.970182 2.104531
RightLeg 98.179387 -0.000000 -0.000000
RightFoot 38.575443 -12.880763 19.325887
RightToeBase 45.574236 -0.000000 -0.000000
